<svg xmlns="http://www.w3.org/2000/svg" viewBox="0 0 512 512">
  <rect width="512" height="512" rx="96" fill="#18181b"/>
  <g transform="translate(56, 100) scale(0.28)">
    <path fill="#10b981" d="M727,551.1c-14.6-7.7-25.7-18.9-33.3-33.7c-7.6-14.8-11.4-32.6-11.4-53.5v-29.9c0-20.6,3.8-38.3,11.4-52.9
      c7.6-14.6,18.7-25.8,33.3-33.4c14.6-7.6,32.1-11.4,52.6-11.4c11.7,0,22.8,1.4,33.2,4.1c10.4,2.8,19.7,6.8,28,12
      c8.3,5.2,15.2,11.6,20.7,19.1l-34.3,32.2c-5.8-6.1-12.6-10.7-20.4-14c-7.8-3.2-15.9-4.9-24.4-4.9c-15.7,0-27.8,4.3-36.5,12.8
      c-8.6,8.6-12.9,20.7-12.9,36.4v29.9c0,16.1,4.3,28.5,12.8,37.2c8.5,8.7,20.7,13,36.6,13c8.6,0,16.8-1.8,24.6-5.3
      c7.8-3.5,14.5-8.5,20.1-15.1l34.3,34.3c-5.7,7.4-12.6,13.6-20.9,18.8c-8.3,5.2-17.6,9.1-28,11.8c-10.4,2.7-21.4,4-33,4
      C759.1,562.6,741.6,558.8,727,551.1z"/>
    <path fill="#a1a1aa" d="M919.7,651h-48.1l140.6-403.2h48.1L919.7,651z"/>
    <path fill="#10b981" d="M1140.4,562.6c-11.6,0-22.6-1.3-33-4c-10.4-2.7-19.7-6.6-28-11.8c-8.3-5.2-15.2-11.4-20.9-18.8l34.3-34.3
      c5.7,6.5,12.4,11.5,20.1,15.1c7.8,3.5,16,5.3,24.6,5.3c15.8,0,28-4.3,36.6-13c8.6-8.7,12.8-21.1,12.8-37.2v-29.9
      c0-15.7-4.3-27.8-12.9-36.4c-8.6-8.5-20.8-12.8-36.5-12.8c-8.5,0-16.6,1.6-24.4,4.9c-7.8,3.3-14.6,7.9-20.4,14l-34.3-32.2
      c5.5-7.5,12.4-13.9,20.7-19.1c8.3-5.2,17.6-9.2,28-12c10.4-2.8,21.4-4.1,33.2-4.1c20.5,0,38,3.8,52.6,11.4
      c14.6,7.6,25.7,18.8,33.3,33.4c7.6,14.6,11.4,32.3,11.4,52.9v29.9c0,20.9-3.8,38.8-11.4,53.5c-7.6,14.8-18.7,26-33.3,33.7
      C1178.4,558.8,1160.9,562.6,1140.4,562.6z"/>
  </g>
</svg>
