<?xml version="1.0" encoding="utf-8"?>
<!-- Generator: Adobe Illustrator 26.3.1, SVG Export Plug-In . SVG Version: 6.00 Build 0)  -->
<svg version="1.1" id="Layer_1" xmlns="http://www.w3.org/2000/svg" xmlns:xlink="http://www.w3.org/1999/xlink" x="0px" y="0px"
	 viewBox="0 0 1920 1080" style="enable-background:new 0 0 1920 1080;" xml:space="preserve">
<g>
	<g>
		<path d="M727,551.1c-14.6-7.7-25.7-18.9-33.3-33.7c-7.6-14.8-11.4-32.6-11.4-53.5v-29.9c0-20.6,3.8-38.3,11.4-52.9
			c7.6-14.6,18.7-25.8,33.3-33.4c14.6-7.6,32.1-11.4,52.6-11.4c11.7,0,22.8,1.4,33.2,4.1c10.4,2.8,19.7,6.8,28,12
			c8.3,5.2,15.2,11.6,20.7,19.1l-34.3,32.2c-5.8-6.1-12.6-10.7-20.4-14c-7.8-3.2-15.9-4.9-24.4-4.9c-15.7,0-27.8,4.3-36.5,12.8
			c-8.6,8.6-12.9,20.7-12.9,36.4v29.9c0,16.1,4.3,28.5,12.8,37.2c8.5,8.7,20.7,13,36.6,13c8.6,0,16.8-1.8,24.6-5.3
			c7.8-3.5,14.5-8.5,20.1-15.1l34.3,34.3c-5.7,7.4-12.6,13.6-20.9,18.8c-8.3,5.2-17.6,9.1-28,11.8c-10.4,2.7-21.4,4-33,4
			C759.1,562.6,741.6,558.8,727,551.1z"/>
		<path d="M919.7,651h-48.1l140.6-403.2h48.1L919.7,651z"/>
		<path d="M1140.4,562.6c-11.6,0-22.6-1.3-33-4c-10.4-2.7-19.7-6.6-28-11.8c-8.3-5.2-15.2-11.4-20.9-18.8l34.3-34.3
			c5.7,6.5,12.4,11.5,20.1,15.1c7.8,3.5,16,5.3,24.6,5.3c15.8,0,28-4.3,36.6-13c8.6-8.7,12.8-21.1,12.8-37.2v-29.9
			c0-15.7-4.3-27.8-12.9-36.4c-8.6-8.5-20.8-12.8-36.5-12.8c-8.5,0-16.6,1.6-24.4,4.9c-7.8,3.3-14.6,7.9-20.4,14l-34.3-32.2
			c5.5-7.5,12.4-13.9,20.7-19.1c8.3-5.2,17.6-9.2,28-12c10.4-2.8,21.4-4.1,33.2-4.1c20.5,0,38,3.8,52.6,11.4
			c14.6,7.6,25.7,18.8,33.3,33.4c7.6,14.6,11.4,32.3,11.4,52.9v29.9c0,20.9-3.8,38.8-11.4,53.5c-7.6,14.8-18.7,26-33.3,33.7
			C1178.4,558.8,1160.9,562.6,1140.4,562.6z"/>
	</g>
	<g>
		<path d="M510.4,828.6c-4.4-2.3-7.8-5.6-10.1-10c-2.3-4.4-3.5-9.7-3.5-15.9v-23.6c0-6.2,1.2-11.6,3.5-16c2.3-4.5,5.7-7.8,10.1-10.2
			c4.4-2.3,9.7-3.5,15.9-3.5c5.1,0,9.6,0.8,13.3,2.3s6.7,3.9,9,7c2.3,3.1,3.8,7,4.4,11.5l-14,4.4c-0.8-3.6-2.2-6.3-4.3-8.1
			c-2.1-1.9-4.8-2.8-8.2-2.8c-4.5,0-8.1,1.3-10.6,4c-2.5,2.7-3.8,6.5-3.8,11.4v23.6c0,4.8,1.3,8.5,3.8,11.1
			c2.5,2.6,6.1,3.9,10.7,3.9c3.4,0,6.2-0.9,8.3-2.7c2.1-1.8,3.5-4.5,4.3-8l14.1,4.7c-0.8,4.5-2.3,8.2-4.5,11.3
			c-2.2,3.1-5.2,5.3-9,6.8c-3.8,1.5-8.2,2.2-13.4,2.2C520.1,832,514.8,830.8,510.4,828.6z"/>
		<path d="M568,718.5h15.2v112.3H568V718.5z M609.4,778.7c0-4.9-1.1-8.6-3.4-11.2c-2.3-2.5-5.6-3.8-9.8-3.8c-4.2,0-7.4,1.2-9.7,3.6
			c-2.2,2.4-3.3,5.8-3.3,10.4l-1.6-13.4c2.1-4.8,5-8.5,8.5-11.1c3.6-2.5,7.6-3.8,12.1-3.8c7.2,0,12.8,2.4,16.6,7.1
			c3.9,4.7,5.8,11.4,5.8,20.1v54.3h-15.2V778.7z"/>
		<path d="M656.8,828.3c-4.4-2.4-7.8-6-10.2-10.7c-2.3-4.7-3.5-10.3-3.5-16.9v-18.5c0-6.9,1.1-12.8,3.4-17.7
			c2.3-4.9,5.5-8.6,9.8-11.2s9.5-3.9,15.6-3.9c5.9,0,10.9,1.3,15.1,4c4.2,2.7,7.3,6.5,9.5,11.7c2.2,5.1,3.3,11.3,3.3,18.4v13.4H654
			v-12.5h31.3v-4.4c-0.1-5.2-1.3-9.4-3.6-12.4c-2.4-3-5.6-4.5-9.7-4.5c-4.5,0-8,1.6-10.5,4.8c-2.5,3.2-3.7,7.7-3.7,13.4v19.8
			c0,5.2,1.3,9.3,4,12.2c2.7,2.9,6.4,4.3,11.3,4.3c3.1,0,5.7-0.7,7.7-2.2c2-1.5,3.4-3.6,4.3-6.3l13.9,4.5
			c-1.5,6.1-4.4,10.7-8.8,13.8c-4.4,3.1-10.1,4.6-17.1,4.6C666.6,832,661.3,830.7,656.8,828.3z"/>
		<path d="M718.4,750.7h15.2v80.1h-15.2V750.7z M759.2,778.7c0-4.9-1.1-8.6-3.2-11.2c-2.1-2.5-5.3-3.8-9.4-3.8
			c-4.2,0-7.4,1.2-9.7,3.6c-2.2,2.4-3.3,5.9-3.3,10.5l-1.6-13.4c2.1-4.9,5-8.7,8.5-11.2c3.6-2.5,7.6-3.8,12.2-3.8
			c4.6,0,8.5,1.1,11.7,3.2c3.2,2.1,5.7,5.2,7.4,9.2c1.7,4,2.5,8.9,2.5,14.7v54.4h-15.2V778.7z M800.1,778.7c0-4.9-1.1-8.6-3.4-11.2
			c-2.3-2.5-5.6-3.8-9.9-3.8c-4,0-7,1.3-9.1,3.8c-2.1,2.5-3.2,6.2-3.2,11.1l-2.6-13.2c2.1-5.2,5-9.2,8.7-11.9
			c3.7-2.8,7.8-4.1,12.3-4.1c4.8,0,8.9,1.1,12.2,3.2c3.3,2.1,5.9,5.2,7.6,9.3c1.7,4.1,2.6,9,2.6,14.7v54.3h-15.2V778.7z"/>
		<path d="M835.7,719.1h15.2v15.1h-15.2V719.1z M835.7,750.7h15.2v80.1h-15.2V750.7z"/>
		<path d="M882.9,828.6c-4.4-2.3-7.8-5.6-10.1-10c-2.3-4.4-3.5-9.7-3.5-15.9v-23.6c0-6.2,1.2-11.6,3.5-16c2.3-4.5,5.7-7.8,10.1-10.2
			c4.4-2.3,9.7-3.5,15.9-3.5c5.1,0,9.6,0.8,13.3,2.3c3.7,1.5,6.7,3.9,9,7c2.3,3.1,3.8,7,4.4,11.5l-14,4.4c-0.8-3.6-2.2-6.3-4.3-8.1
			c-2.1-1.9-4.8-2.8-8.2-2.8c-4.5,0-8.1,1.3-10.6,4c-2.5,2.7-3.8,6.5-3.8,11.4v23.6c0,4.8,1.3,8.5,3.8,11.1
			c2.5,2.6,6.1,3.9,10.7,3.9c3.4,0,6.1-0.9,8.3-2.7c2.1-1.8,3.6-4.5,4.3-8l14.1,4.7c-0.8,4.5-2.3,8.2-4.5,11.3
			c-2.2,3.1-5.2,5.3-9,6.8c-3.8,1.5-8.2,2.2-13.4,2.2C892.6,832,887.3,830.8,882.9,828.6z"/>
		<path d="M944,826.1c-4.1-3.9-6.1-9.8-6.1-17.8c0-8.4,2.1-14.8,6.4-19c4.3-4.2,10.8-6.3,19.5-6.3h16.5l1.1,12.9h-17.5
			c-3.9,0-6.8,1-8.7,3.1c-1.9,2.1-2.9,5.2-2.9,9.3c0,3.6,1.1,6.3,3.2,8c2.1,1.8,5.4,2.6,9.7,2.6c4.8,0,8.5-0.8,10.8-2.5
			c2.4-1.7,3.6-4.2,3.6-7.6l1.6,9.3c-0.7,3.1-1.9,5.6-3.5,7.7c-1.6,2-3.7,3.6-6.3,4.6c-2.5,1-5.5,1.5-9,1.5
			C954.3,832,948.1,830,944,826.1z M979.6,776.1c0-4.2-1.1-7.5-3.4-9.8c-2.3-2.3-5.5-3.5-9.6-3.5c-3,0-5.6,0.7-7.9,2.1
			c-2.3,1.4-4,3.3-5.2,5.8l-12.9-3.9c1.5-5.5,4.6-9.7,9.1-12.7c4.5-3,10.1-4.6,16.9-4.6c5.8,0,10.8,1,14.9,3.1
			c4.1,2.1,7.3,5.1,9.5,9s3.2,8.7,3.2,14.2v55.1h-14.6V776.1z"/>
		<path d="M1029.9,809.8c0,2.2,0.5,3.8,1.4,5c0.9,1.2,2.2,1.8,3.9,1.8h5.9V831h-7.7c-6,0-10.6-1.9-13.9-5.6
			c-3.3-3.7-4.9-8.9-4.9-15.7v-91.2h15.2V809.8z"/>
		<path d="M1092.6,828.6c-4.4-2.3-7.8-5.6-10.1-10c-2.3-4.4-3.5-9.7-3.5-15.9v-23.6c0-6.2,1.2-11.6,3.5-16
			c2.3-4.5,5.7-7.8,10.1-10.2c4.4-2.3,9.7-3.5,15.9-3.5c5.1,0,9.6,0.8,13.3,2.3c3.7,1.5,6.7,3.9,9,7c2.3,3.1,3.8,7,4.4,11.5l-14,4.4
			c-0.8-3.6-2.2-6.3-4.3-8.1c-2.1-1.9-4.8-2.8-8.2-2.8c-4.5,0-8.1,1.3-10.6,4c-2.5,2.7-3.8,6.5-3.8,11.4v23.6
			c0,4.8,1.3,8.5,3.8,11.1c2.5,2.6,6.1,3.9,10.7,3.9c3.4,0,6.1-0.9,8.3-2.7c2.1-1.8,3.6-4.5,4.3-8l14.1,4.7
			c-0.8,4.5-2.3,8.2-4.5,11.3c-2.2,3.1-5.2,5.3-9,6.8s-8.2,2.2-13.4,2.2C1102.3,832,1097,830.8,1092.6,828.6z"/>
		<path d="M1161.1,828.6c-4.2-2.3-7.4-5.6-9.6-9.9c-2.2-4.4-3.3-9.6-3.3-15.7v-24.9c0-6.1,1.1-11.3,3.3-15.6
			c2.2-4.3,5.4-7.6,9.6-9.8c4.2-2.2,9.3-3.4,15.2-3.4c5.9,0,10.9,1.1,15.1,3.4c4.2,2.2,7.4,5.5,9.6,9.8c2.2,4.3,3.3,9.5,3.3,15.6
			v25.1c0,6.1-1.1,11.3-3.3,15.6c-2.2,4.3-5.4,7.6-9.6,9.8c-4.2,2.3-9.2,3.4-15.1,3.4C1170.4,832,1165.3,830.8,1161.1,828.6z
			 M1185.7,813.5c2.2-2.5,3.4-6.1,3.4-10.7v-24.5c0-4.6-1.1-8.1-3.4-10.6c-2.2-2.5-5.4-3.7-9.5-3.7s-7.2,1.2-9.5,3.7
			s-3.4,6-3.4,10.6v24.5c0,4.6,1.1,8.1,3.4,10.7c2.2,2.5,5.4,3.8,9.5,3.8S1183.4,816.1,1185.7,813.5z"/>
		<path d="M1231.7,828.9c-3.4-2.2-6-5.4-7.8-9.7c-1.8-4.2-2.7-9.3-2.7-15.3V778c0-6.1,0.9-11.3,2.6-15.6c1.7-4.3,4.3-7.6,7.6-9.8
			s7.4-3.4,12-3.4c4.2,0,8,1.2,11.5,3.7c3.5,2.5,6.3,5.9,8.5,10.4l-1.6,13.9c0-2.9-0.5-5.5-1.5-7.6c-1-2.1-2.4-3.7-4.3-4.8
			c-1.9-1.1-4.1-1.7-6.8-1.7c-4.1,0-7.2,1.3-9.5,4c-2.3,2.7-3.4,6.4-3.4,11.3v25.1c0,4.6,1.1,8.2,3.4,10.8c2.3,2.5,5.4,3.8,9.5,3.8
			c2.7,0,4.9-0.6,6.8-1.7c1.9-1.1,3.3-2.7,4.3-4.8c1-2.1,1.5-4.6,1.5-7.6l1.1,14.1c-1.5,4.2-4,7.6-7.2,10.2
			c-3.3,2.5-7.2,3.8-11.9,3.8C1239.2,832.2,1235.1,831.1,1231.7,828.9z M1261.9,718.5h15.2v112.3h-15.2V718.5z"/>
		<path d="M1309.3,828.3c-4.4-2.4-7.8-6-10.2-10.7c-2.3-4.7-3.5-10.3-3.5-16.9v-18.5c0-6.9,1.1-12.8,3.4-17.7
			c2.3-4.9,5.5-8.6,9.8-11.2c4.3-2.6,9.5-3.9,15.6-3.9c5.9,0,10.9,1.3,15.1,4c4.2,2.7,7.3,6.5,9.5,11.7c2.2,5.1,3.3,11.3,3.3,18.4
			v13.4h-45.9v-12.5h31.3v-4.4c-0.1-5.2-1.3-9.4-3.6-12.4c-2.4-3-5.6-4.5-9.7-4.5c-4.5,0-8,1.6-10.5,4.8c-2.5,3.2-3.7,7.7-3.7,13.4
			v19.8c0,5.2,1.3,9.3,4,12.2c2.7,2.9,6.4,4.3,11.3,4.3c3.1,0,5.7-0.7,7.7-2.2c2-1.5,3.4-3.6,4.3-6.3l13.9,4.5
			c-1.5,6.1-4.4,10.7-8.8,13.8c-4.4,3.1-10.1,4.6-17.1,4.6C1319.1,832,1313.8,830.7,1309.3,828.3z"/>
		<path d="M1379.9,829.9c-4-1.4-7.3-3.5-9.8-6.4c-2.5-2.9-4.4-6.4-5.5-10.7l13.5-6c1.5,3.9,3.6,6.8,6.3,8.7c2.6,1.9,5.8,2.9,9.6,2.9
			c4.7,0,8.3-1,10.7-2.9c2.5-1.9,3.7-4.6,3.7-8.2c0-2.4-0.7-4.2-2-5.5c-1.4-1.3-3-2.3-5.1-2.9c-2-0.6-4.8-1.3-8.5-1.9
			c-0.3-0.1-0.6-0.1-1-0.2c-0.3,0-0.7-0.1-1.1-0.2c-0.2-0.1-0.3-0.2-0.5-0.2c-0.2,0-0.3,0-0.5,0c-4.5-0.9-8.3-2-11.4-3.4
			c-3.1-1.4-5.8-3.6-7.8-6.7c-2.1-3.1-3.1-7.2-3.1-12.5c0-5.3,1-9.8,3.1-13.4c2.1-3.6,5.1-6.4,9.2-8.3c4-1.9,9-2.8,14.8-2.8
			c4.9,0,9.2,0.6,12.9,1.9s6.7,3.2,9.1,5.7c2.4,2.5,4.2,5.8,5.4,9.6l-13.7,6c-1.3-3.2-3.2-5.7-5.4-7.3c-2.3-1.6-5.1-2.4-8.3-2.4
			c-4.1,0-7.1,0.9-9.2,2.7c-2.1,1.8-3.1,4.4-3.1,7.9c0,2.2,0.6,3.9,1.9,5.2c1.3,1.2,2.9,2.1,4.9,2.7c2,0.6,4.8,1.2,8.4,1.7
			c0.1,0.1,0.2,0.1,0.3,0.1c0.2,0,0.3,0,0.4,0c0.1,0.1,0.2,0.1,0.4,0.1c0.2,0,0.3,0,0.4,0c4.9,0.9,9.1,2,12.4,3.2
			c3.3,1.3,6.2,3.6,8.5,6.9c2.3,3.3,3.4,7.9,3.4,13.7c0,5.3-1.1,9.8-3.4,13.5c-2.2,3.7-5.5,6.5-9.9,8.3c-4.4,1.9-9.7,2.8-15.9,2.8
			C1388.6,832,1383.9,831.3,1379.9,829.9z"/>
	</g>
</g>
</svg>
